<svg width="78" height="78" viewBox="0 0 78 78" fill="none" xmlns="http://www.w3.org/2000/svg">
<rect width="78" height="78" rx="18" fill="#2575FC"/>
<rect width="78" height="78" rx="18" fill="url(#paint0_linear_67_329)"/>
<path d="M45.0252 45.0013C45.2585 44.82 45.4705 44.608 45.8932 44.1853L51.1692 38.908C51.2972 38.7813 51.2385 38.5613 51.0692 38.5013C50.2436 38.2136 49.4941 37.7422 48.8772 37.1227C48.2576 36.5058 47.7862 35.7563 47.4985 34.9307C47.4385 34.7613 47.2185 34.7027 47.0918 34.8307L41.8132 40.1067C41.3905 40.5293 41.1785 40.7413 40.9972 40.9747C40.7825 41.2507 40.5972 41.548 40.4478 41.8627C40.3212 42.1293 40.2265 42.4147 40.0372 42.9827L39.7918 43.716L39.4025 44.8827L39.0385 45.976C38.9931 46.113 38.9867 46.26 39.02 46.4005C39.0533 46.5409 39.125 46.6694 39.2271 46.7714C39.3292 46.8735 39.4576 46.9452 39.5981 46.9785C39.7385 47.0118 39.8855 47.0054 40.0225 46.96L41.1158 46.596L42.2825 46.2067L43.0158 45.9613C43.5838 45.772 43.8692 45.6787 44.1358 45.5507C44.4505 45.4 44.7505 45.2173 45.0252 45.0013ZM52.8225 37.256C53.3634 36.715 53.6672 35.9812 53.667 35.2162C53.6669 34.4512 53.3629 33.7175 52.8218 33.1767C52.2808 32.6358 51.5471 32.332 50.782 32.3322C50.017 32.3323 49.2834 32.6363 48.7425 33.1773L48.5745 33.348C48.4938 33.4276 48.4336 33.5256 48.3993 33.6336C48.3649 33.7417 48.3573 33.8564 48.3772 33.968C48.4038 34.1107 48.4505 34.3213 48.5372 34.5707C48.7105 35.0707 49.0385 35.7267 49.6558 36.344C50.1545 36.8466 50.7609 37.2291 51.4292 37.4627C51.6798 37.5493 51.8892 37.596 52.0318 37.6227C52.1434 37.6424 52.2582 37.6348 52.3662 37.6004C52.4742 37.5661 52.5722 37.506 52.6518 37.4253L52.8225 37.256Z" fill="white"/>
<path fill-rule="evenodd" clip-rule="evenodd" d="M28.5627 27.2293C27 28.7907 27 31.3053 27 36.3333V41.6667C27 46.6947 27 49.2093 28.5627 50.7707C30.124 52.3333 32.6387 52.3333 37.6667 52.3333H40.3333C45.3613 52.3333 47.876 52.3333 49.4373 50.7707C50.9747 49.2347 51 46.776 51 41.9067L47.2427 45.664C46.8827 46.024 46.588 46.3187 46.256 46.5787C45.8659 46.8827 45.4439 47.1434 44.9973 47.356C44.5879 47.5396 44.1676 47.6976 43.7387 47.8293L40.656 48.8573C40.1666 49.0205 39.6415 49.0442 39.1394 48.9257C38.6374 48.8072 38.1782 48.5513 37.8135 48.1865C37.4487 47.8217 37.1927 47.3626 37.0743 46.8605C36.9558 46.3585 36.9795 45.8333 37.1427 45.344L37.508 44.2507L38.1413 42.3493L38.1693 42.2613C38.3307 41.7787 38.4627 41.384 38.644 41.0027C38.8573 40.556 39.1173 40.1347 39.4213 39.7453C39.6813 39.412 39.976 39.1187 40.336 38.7587L45.6773 33.416L47.16 31.9333L47.3293 31.764C47.7825 31.3096 48.3209 30.9493 48.9138 30.7037C49.5067 30.4582 50.1423 30.3323 50.784 30.3333C50.5827 28.96 50.192 27.9827 49.4373 27.2293C47.876 25.6667 45.3613 25.6667 40.3333 25.6667H37.6667C32.6387 25.6667 30.124 25.6667 28.5627 27.2293ZM32.6667 35C32.6667 34.7348 32.772 34.4804 32.9596 34.2929C33.1471 34.1053 33.4015 34 33.6667 34H42.3333C42.5986 34 42.8529 34.1053 43.0404 34.2929C43.228 34.4804 43.3333 34.7348 43.3333 35C43.3333 35.2652 43.228 35.5196 43.0404 35.7071C42.8529 35.8946 42.5986 36 42.3333 36H33.6667C33.4015 36 33.1471 35.8946 32.9596 35.7071C32.772 35.5196 32.6667 35.2652 32.6667 35ZM32.6667 40.3333C32.6667 40.0681 32.772 39.8138 32.9596 39.6262C33.1471 39.4387 33.4015 39.3333 33.6667 39.3333H37C37.2652 39.3333 37.5196 39.4387 37.7071 39.6262C37.8946 39.8138 38 40.0681 38 40.3333C38 40.5985 37.8946 40.8529 37.7071 41.0404C37.5196 41.228 37.2652 41.3333 37 41.3333H33.6667C33.4015 41.3333 33.1471 41.228 32.9596 41.0404C32.772 40.8529 32.6667 40.5985 32.6667 40.3333ZM32.6667 45.6667C32.6667 45.4014 32.772 45.1471 32.9596 44.9595C33.1471 44.772 33.4015 44.6667 33.6667 44.6667H35.6667C35.9319 44.6667 36.1862 44.772 36.3738 44.9595C36.5613 45.1471 36.6667 45.4014 36.6667 45.6667C36.6667 45.9319 36.5613 46.1862 36.3738 46.3738C36.1862 46.5613 35.9319 46.6667 35.6667 46.6667H33.6667C33.4015 46.6667 33.1471 46.5613 32.9596 46.3738C32.772 46.1862 32.6667 45.9319 32.6667 45.6667Z" fill="white"/>
<defs>
<linearGradient id="paint0_linear_67_329" x1="39" y1="0" x2="39" y2="78" gradientUnits="userSpaceOnUse">
<stop stop-color="white" stop-opacity="0.2"/>
<stop offset="1" stop-color="white" stop-opacity="0"/>
</linearGradient>
</defs>
</svg>
